<svg width="23" height="25" viewBox="0 0 23 25" fill="none" xmlns="http://www.w3.org/2000/svg">
<path d="M18.3811 15.9378C17.1372 15.9378 16.0063 16.5032 15.2147 17.2948L9.22129 13.7892C9.22129 13.3368 9.33438 12.9976 9.33438 12.5452C9.33438 12.0929 9.22129 11.7536 9.10821 11.3013L15.1017 7.79568C16.0063 8.58731 17.1372 9.1527 18.3811 9.1527C20.869 9.1527 22.9045 7.11718 22.9045 4.62932C22.9045 2.14147 20.869 0.105957 18.3811 0.105957C15.8932 0.105957 13.8577 2.14147 13.8577 4.62932C13.8577 5.08169 13.9708 5.42094 14.0839 5.87325L7.97733 9.37887C7.18574 8.58728 6.05493 8.02185 4.81097 8.02185C2.32311 8.02185 0.287598 10.0574 0.287598 12.5452C0.287598 15.0331 2.32311 17.0686 4.81097 17.0686C6.0549 17.0686 7.18574 16.5032 7.97733 15.7116L13.9708 19.2172C13.9708 19.6696 13.8577 20.0088 13.8577 20.4611C13.8577 22.949 15.8932 24.9845 18.3811 24.9845C20.8689 24.9845 22.9044 22.949 22.9044 20.4611C22.9044 17.9733 20.8689 15.9378 18.3811 15.9378H18.3811ZM18.3811 2.36766C19.625 2.36766 20.6428 3.38543 20.6428 4.62932C20.6428 5.87325 19.625 6.89101 18.3811 6.89101C17.1372 6.89101 16.1194 5.87325 16.1194 4.62932C16.1194 3.38543 17.1372 2.36766 18.3811 2.36766ZM4.811 14.8069C3.56707 14.8069 2.54932 13.7892 2.54932 12.5452C2.54932 11.3013 3.56707 10.2836 4.811 10.2836C6.05493 10.2836 7.07269 11.3013 7.07269 12.5452C7.07269 13.7892 6.05493 14.8069 4.811 14.8069ZM18.3811 22.7228C17.1372 22.7228 16.1194 21.7051 16.1194 20.4611C16.1194 20.0088 16.2325 19.6695 16.4587 19.3303C16.7979 18.6518 17.5895 18.1995 18.3811 18.1995C19.625 18.1995 20.6428 19.2172 20.6428 20.4611C20.6428 21.705 19.625 22.7228 18.3811 22.7228V22.7228Z" fill="black"/>
</svg>
